<svg width="683" height="650" fill="none" xmlns="http://www.w3.org/2000/svg"><path d="M683 636.011c0 .074-152.911.148-341.485.148C152.94 636.159 0 636.011 0 636.011s152.881-.163 341.515-.163 341.485.059 341.485.163ZM683 649.629c0 .089-152.911.149-341.485.149-188.575 0-341.515 0-341.515-.149 0-.148 152.881-.148 341.515-.148s341.485.074 341.485.148Z" fill="#fff"/><path d="M297.183 650c-.089 0-.148-3.231-.148-7.202s0-7.202.148-7.202.148 3.231.148 7.202-.059 7.202-.148 7.202ZM218.312 650c-.089 0-.163-3.231-.163-7.202s.074-7.202.163-7.202c.089 0 .148 3.231.148 7.202s-.074 7.202-.148 7.202ZM139.427 650c-.089 0-.148-3.231-.148-7.202s0-7.202.148-7.202.148 3.231.148 7.202-.059 7.202-.148 7.202ZM60.557 650c-.09 0-.163-3.231-.163-7.202s0-7.202.163-7.202.148 3.231.148 7.202-.074 7.202-.148 7.202ZM376.571 650c-.089 0-.163-3.231-.163-7.202s.074-7.202.163-7.202c.089 0 .149 3.231.149 7.202s-.074 7.202-.149 7.202ZM455.946 650c-.089 0-.148-3.231-.148-7.202s-.001-7.202.148-7.202c.148 0 .148 3.231.148 7.202s-.059 7.202-.148 7.202ZM535.335 650c-.089 0-.163-3.231-.163-7.202s.074-7.202.163-7.202c.089 0 .148 3.231.148 7.202s-.074 7.202-.148 7.202ZM614.709 650c-.089 0-.149-3.231-.149-7.202s0-7.202.149-7.202c.148 0 .148 3.231.148 7.202s-.06 7.202-.148 7.202Z" fill="#fff"/><path d="M590.186 556.064a14.942 14.942 0 0 1 7.749 8.772 26.465 26.465 0 0 1 1.037 11.855c-.874 7.706-5.26 15.501-9.986 21.665-6.49-5.661-7.986-15.559-8.431-20.627-.711-8.002 2.963-22.91 9.631-21.71M596.543 611.145a12.77 12.77 0 0 1 4.119-12.137 16.963 16.963 0 0 1 12.49-3.897 7.155 7.155 0 0 1 5.497 2.46 5.462 5.462 0 0 1 .075 5.527 10.906 10.906 0 0 1-4.09 4.031c-5.63 3.542-11.735 5.928-18.091 4.016Z" fill="#FFC701"/><path d="M588.2 634.811a11.45 11.45 0 0 1 .237-1.586c.208-1.111.475-2.564.786-4.283a44.923 44.923 0 0 1 4.445-13.692 27.31 27.31 0 0 1 9.823-10.447 18.744 18.744 0 0 1 4.001-1.778 9.548 9.548 0 0 1 1.156-.282c.137-.024.277-.024.415 0a25.326 25.326 0 0 0-14.906 12.833 48.368 48.368 0 0 0-4.534 13.5 235.821 235.821 0 0 1-.948 4.253 7.97 7.97 0 0 1-.475 1.482Z" fill="url(#a)"/><path d="M588.452 567.652c.047.224.072.452.074.682 0 .518 0 1.185.119 2 .104 1.719.193 4.223.296 7.32.208 6.18.356 14.73.312 24.17-.045 9.439-.267 17.99-.519 24.169a470.726 470.726 0 0 1-.356 7.32c0 .815-.103 1.482-.133 1.986a4.403 4.403 0 0 1-.089.696 3.678 3.678 0 0 1 0-.696v-2c0-1.794.104-4.283.178-7.321.148-6.179.326-14.73.37-24.154.045-9.425 0-17.975-.163-24.17 0-3.037-.089-5.512-.118-7.32v-1.986a3.603 3.603 0 0 1 .029-.696Z" fill="url(#b)"/><path d="M585.296 615.843a29.853 29.853 0 0 0-16.298-21.873c-2.163-1.037-5.008-1.719-6.786-.104-1.778 1.616-1.393 4.52-.519 6.773a25.517 25.517 0 0 0 23.455 15.841" fill="#FFC701"/><path d="M570.05 601.291c.474.166.935.369 1.378.607.54.243 1.065.52 1.57.83.578.371 1.289.726 1.971 1.245a28.24 28.24 0 0 1 2.282 1.704c.8.637 1.585 1.393 2.415 2.193a33.952 33.952 0 0 1 4.578 5.928 31.872 31.872 0 0 1 2.964 6.846c.318 1.041.575 2.1.77 3.171.186.93.315 1.87.385 2.816.076.778.11 1.559.104 2.341a11.04 11.04 0 0 1 0 1.763 9.697 9.697 0 0 1-.163 1.482c-.133 0 .089-2.149-.296-5.557a23.166 23.166 0 0 0-.445-2.771c-.178-.993-.489-2.03-.8-3.112a34.32 34.32 0 0 0-2.963-6.698 35.123 35.123 0 0 0-4.445-5.824 29.421 29.421 0 0 0-2.341-2.208c-.741-.681-1.482-1.215-2.193-1.733-2.86-2.016-4.831-2.905-4.771-3.023Z" fill="url(#c)"/><path d="m452.871 276.12-60.003-12.57c-7.637-1.6-14.441.034-15.198 3.648l-15.619 74.578c-.757 3.615 4.82 7.842 12.456 9.442l60.003 12.569c7.637 1.6 14.441-.033 15.198-3.648l15.619-74.578c.757-3.615-4.82-7.842-12.456-9.441Z" fill="#262727"/><path d="M423.826 341.571a29.143 29.143 0 0 1-9.087 1.749 29.577 29.577 0 0 1-6.569-58.602 29.568 29.568 0 0 1 34.101 21.19 29.576 29.576 0 0 1-18.445 35.663Z" fill="#FFC727"/><path d="M423.235 312.283a9.006 9.006 0 0 1-17.818-1.909 9.001 9.001 0 0 1 5.619-8.273 9 9 0 0 1 5.203-.475 8.986 8.986 0 0 1 5.711 3.875 9.006 9.006 0 0 1 1.285 6.782Z" fill="#fff"/><path d="m424.583 337.939-.757 3.632a29.11 29.11 0 0 1-9.087 1.75 29.412 29.412 0 0 1-21.375-8.111l.756-3.623a15.556 15.556 0 0 1 18.481-12.434 15.564 15.564 0 0 1 11.973 18.784l.009.002Z" fill="#fff"/><path d="m311.437 243.165 55.889 30.837-7.083 19.265s-49.281-13.337-78.085-32.424l29.279-17.678Z" fill="#FFD5BD"/><path d="M398.545 266.667s-11.201-4.86-12.95-5.408c-1.748-.549-10.92.992-10.92.992L363.8 275.055l-3.556 18.227a38.128 38.128 0 0 0 11.305 2.104c5.69 0 17.78-6.446 17.78-6.446s4.164 2.46 4.816 2c.652-.459 3.378-2.845 2.4-4.445 0 0 3.319-3.497 2.341-5.454l-1.867-1.481s4.697-4.164 1.082-6.12c-.03.103 4.341-3.839.444-6.773Z" fill="#FFD5BD"/><path d="M398.027 272.951c-.134.208-2.964-1.571-6.772-3.275-3.808-1.704-6.978-2.727-6.919-2.964a27.867 27.867 0 0 1 13.691 6.239ZM397.804 280.079c-.074.104-.711-.267-1.748-.785l-4.179-1.897a24.995 24.995 0 0 1-5.66-3.246 25.33 25.33 0 0 1 6.031 2.46 38.394 38.394 0 0 1 4.074 2.208c1.008.623 1.482 1.171 1.482 1.26ZM387.195 280.212a8.664 8.664 0 0 1 5.364 1.912 8.533 8.533 0 0 1 3.689 4.327c-.207.148-1.659-1.912-4.178-3.616-2.519-1.704-4.934-2.371-4.875-2.623Z" fill="#FFB294"/><path d="M417.508 370.478c-.134 0-.237-2.386-.756-6.209a79.306 79.306 0 0 0-3.452-14.596 77.805 77.805 0 0 0-6.238-13.648c-1.926-3.334-3.23-5.35-3.23-5.35.412.384.775.817 1.081 1.289.667.86 1.556 2.149 2.593 3.794a66.65 66.65 0 0 1 6.49 13.678 68.284 68.284 0 0 1 3.275 14.818 43.52 43.52 0 0 1 .266 4.579 6.61 6.61 0 0 1-.029 1.645ZM420.723 346.976a32.992 32.992 0 0 1-2.178-3.838c-1.304-2.386-3.156-5.646-5.408-9.129a149.498 149.498 0 0 0-6.09-8.713 31.518 31.518 0 0 1-2.593-3.571 20.68 20.68 0 0 1 2.963 3.245 86.147 86.147 0 0 1 6.312 8.61 91.328 91.328 0 0 1 5.246 9.306 20.593 20.593 0 0 1 1.748 4.09Z" fill="#263238"/><path d="m209.096 559.976-20.744 33.342s26.937 32.245 23.707 38.78l-66.083-37.832 30.138-53.273 32.982 18.983Z" fill="#FFC701"/><path d="M169.624 578.751a3.109 3.109 0 0 0-3.63 2.016 2.96 2.96 0 0 0 1.956 3.616 3.284 3.284 0 0 0 2.33-.339 3.281 3.281 0 0 0 1.507-1.81 3.095 3.095 0 0 0-2.459-3.542" fill="#E0E0E0"/><path d="m146.006 594.267 3.245-5.246 62.142 38.232s2.208 2.964.696 4.846l-66.083-37.832ZM189.657 593.6c-.208.311-1.897-.46-4.075-.341s-3.808 1.008-4.03.711c-.222-.296 1.318-1.897 3.971-2 2.652-.104 4.371 1.363 4.134 1.63ZM194.946 600.446c-.118.356-1.822.104-3.704.845-1.882.741-2.963 2.001-3.334 1.793-.37-.207.534-2.134 2.889-2.964 2.356-.83 4.312 0 4.149.326ZM194.131 610.982c-.34-.103.134-1.971 1.971-3.26 1.837-1.289 3.763-1.141 3.749-.785-.015.355-1.482.755-2.964 1.837-1.481 1.082-2.415 2.357-2.756 2.208ZM193.524 585.479c-.297.208-1.482-1.082-3.423-2-1.941-.919-3.645-1.156-3.66-1.482-.015-.326 2.03-.741 4.238.385 2.207 1.126 3.156 2.934 2.845 3.097Z" fill="#263238"/><path d="m206.222 573.668-2.237 39.196s39.086 15.426 39.368 22.702l-76.114-1.6.963-61.187 38.02.889Z" fill="#FFC701"/><path d="M180.515 609.07a3.098 3.098 0 0 0-2.223 3.498 2.965 2.965 0 0 0 3.452 2.238 3.269 3.269 0 0 0 1.887-1.409 3.27 3.27 0 0 0 .454-2.311 3.097 3.097 0 0 0-3.852-1.927" fill="#E0E0E0"/><path d="m167.239 633.967.34-6.165 72.855 3.853s3.364 1.482 2.963 3.912l-76.158-1.6ZM205.185 612.494c0 .37-1.882.504-3.734 1.66s-2.86 2.697-3.201 2.549c-.341-.148.267-2.297 2.534-3.646 2.267-1.349 4.534-.904 4.401-.563ZM213.141 615.976c.089.356-1.481.949-2.83 2.505-1.348 1.556-1.704 3.201-2.074 3.171-.371-.029-.563-2.134 1.096-4.016 1.66-1.882 3.808-2.016 3.808-1.66ZM217.483 625.638c-.341.074-.815-1.793.177-3.808.993-2.016 2.757-2.801 2.965-2.475.207.326-.949 1.378-1.749 3.038-.801 1.66-1.023 3.245-1.393 3.245ZM204.755 603.514c-.163.341-1.867-.208-3.971-.119s-3.749.726-3.942.4c-.192-.326 1.482-1.615 3.897-1.689 2.415-.074 4.193 1.111 4.016 1.408Z" fill="#263238"/><path d="M172.588 332.226s-4.727 21.517-2.623 24.658c2.104 3.142 5.764 13.13 5.764 13.13l-3.141 97.063-9.439 142.72h45.34l19.455-125.856s6.815-11.544 9.438-21.517c2.622-9.973 18.106-109.126 18.106-109.126v-38.232l-82.9 17.16Z" fill="#263238"/><path d="M275.95 317.659s-9.468 130.035-12.609 141.579c-3.141 11.543-67.595 129.575-67.595 129.575l-38.894-19.087L208.43 445.1V324.816l67.52-7.157Z" fill="#263238"/><path d="M260.437 328.847c.016.247.016.494 0 .741l-.297 2.149c-.296 1.926-.711 4.697-1.244 8.254-1.126 7.202-2.756 17.545-4.756 30.319l-7.246 44.901c-1.363 8.462-2.726 17.338-4.312 26.541a160.817 160.817 0 0 1-7.067 28.022c-3.408 9.321-8.283 17.782-9.928 26.985-1.955 9.084-3.304 17.99-4.637 26.452-2.564 16.923-4.623 32.216-6.386 45.063-1.764 12.848-3.171 23.222-4.253 30.394-.533 3.586-.978 6.357-1.319 8.239a62.65 62.65 0 0 1-.4 2.134c-.031.247-.086.49-.163.726a3.548 3.548 0 0 1 .074-.741c0-.533.178-1.245.312-2.149l1.141-8.268c.933-7.232 2.281-17.62 3.941-30.423 1.659-12.804 3.674-28.156 6.193-45.109 1.304-8.476 2.653-17.367 4.594-26.525 1.674-9.322 6.578-17.887 9.956-27.104a161.647 161.647 0 0 0 7.039-27.859c1.585-9.173 2.963-18.065 4.445-26.511 2.77-16.894 5.26-32.113 7.408-44.916 2.149-12.803 3.838-23.088 5.038-30.275.622-3.542 1.096-6.298 1.481-8.224l.401-2.134a3.886 3.886 0 0 1-.015-.682ZM168.142 533.154c.085.986.085 1.977 0 2.964 0 1.926-.192 4.712-.385 8.165-.4 6.89-1.082 16.419-1.882 26.91-.8 10.492-1.481 20.02-1.926 26.911-.222 3.319-.4 6.076-.533 8.165a18.318 18.318 0 0 1-.311 2.964 18.107 18.107 0 0 1 0-2.964c0-1.941.103-4.727.237-8.18.281-6.905.859-16.434 1.659-26.94.8-10.507 1.586-19.857 2.149-26.896.281-3.319.503-6.061.681-8.15.028-.99.132-1.976.311-2.949Z" fill="#455A64"/><path d="m225.528 41.422-10.757 71.634c-1.837 12.181-2.045 30.452 17.351 32.468 16.95.474 23.558-14.73 25.188-26.096.8-5.394 1.482-9.884 1.601-10.373 0 0 18.491 1.022 22.521-16.835 1.956-8.624 4.519-26.673 6.638-43.108A34.085 34.085 0 0 0 261.4 11.4l-1.719-.37c-18.817-2.935-31.797 11.484-34.153 30.393Z" fill="#FFD5BD"/><path d="M259.074 108.743a42.568 42.568 0 0 1-21.915-11.603s2.771 14.048 20.966 16.301l.949-4.698Z" fill="#FFB294"/><path d="M283.581 57.397c-.386.296-2.786-.8-6.179-.623-3.393.178-5.838 1.482-6.208 1.2-.371-.281.207-.651 1.274-1.244a11.555 11.555 0 0 1 4.978-1.334c1.68-.105 3.361.19 4.905.86 1.052.503 1.363 1.007 1.23 1.14ZM255.369 54.492c-.474.104-2.133-1.926-5.23-3.26-3.097-1.334-5.927-1.29-6.075-1.69-.118-.177.46-.474 1.689-.533a11.759 11.759 0 0 1 5.008 1.037 10.578 10.578 0 0 1 4.016 2.964c.785.845.785 1.453.592 1.482ZM253.77 60.257a2.015 2.015 0 0 1-2.327 1.585 1.939 1.939 0 0 1-1.621-1.445 1.959 1.959 0 0 1-.039-.763 2.018 2.018 0 0 1 2.327-1.556 1.913 1.913 0 0 1 1.66 2.179ZM280.292 64.865a1.997 1.997 0 0 1-2.327 1.586 1.914 1.914 0 0 1-1.659-2.208 2.013 2.013 0 0 1 2.326-1.586 1.929 1.929 0 0 1 1.66 2.208ZM260.941 74.29a19.254 19.254 0 0 1 4.637.148c.711 0 1.482 0 1.63-.37a3.726 3.726 0 0 0 0-2.179l-.933-5.794c-1.275-8.224-2.015-14.937-1.689-14.982.325-.044 1.629 6.58 2.963 14.819.296 2.03.578 3.956.844 5.809.256.94.178 1.941-.222 2.83a1.807 1.807 0 0 1-1.378.786 4.52 4.52 0 0 1-1.23-.09 17.772 17.772 0 0 1-4.622-.977ZM256.54 40.651c-.385.623-2.741-.207-5.66-.459s-5.394 0-5.646-.637c-.103-.326.43-.89 1.482-1.349a9.378 9.378 0 0 1 4.445-.608 9.11 9.11 0 0 1 4.193 1.483c.934.607 1.349 1.215 1.186 1.57ZM284.499 50.21c-.4.503-2.667-.43-5.526-.92-2.86-.489-5.275-.43-5.497-1.052-.089-.281.444-.711 1.481-1.008a9.972 9.972 0 0 1 4.312-.118c1.453.244 2.837.795 4.06 1.615.963.653 1.348 1.245 1.17 1.482Z" fill="#263238"/><path d="M224.18 54.981c-.282-.193-11.528-6.254-13.735 6.076-2.208 12.329 10.609 11.988 10.683 11.647.074-.34 3.052-17.723 3.052-17.723Z" fill="#FFD5BD"/><path d="M218.209 67.355s-.237.118-.637.222a2.21 2.21 0 0 1-1.601-.267c-1.215-.711-1.941-2.964-1.6-5.201a7.218 7.218 0 0 1 1.141-2.964 2.58 2.58 0 0 1 1.911-1.363 1.125 1.125 0 0 1 1.171.815c.104.385 0 .607 0 .652 0 .044.311-.163.296-.697a1.328 1.328 0 0 0-.341-.86 1.673 1.673 0 0 0-1.126-.518 3.068 3.068 0 0 0-2.593 1.482 7.414 7.414 0 0 0-1.363 3.305c-.355 2.504.489 5.053 2.178 5.927a2.357 2.357 0 0 0 2.03 0c.46-.237.578-.504.534-.534Z" fill="#FFB294"/><path d="M256.836 82.47c.178-.296-2.148-1.348-3.541-3.867a14.154 14.154 0 0 1-1.274-3.468c-.237-.949-.43-1.556-.578-1.482-.148.074-.178.637-.119 1.63a9.314 9.314 0 0 0 1.097 3.853 7.77 7.77 0 0 0 2.83 2.86c.904.46 1.541.578 1.585.475Z" fill="#263238"/><path d="M314.37 36.13a2.964 2.964 0 0 0-1.141-1.896 9.124 9.124 0 0 0-4.445-1.378 26.357 26.357 0 0 1-13.009-6.002 62.246 62.246 0 0 0-5.26-8.535c-4.712-6.402-8.683-10.862-13.083-13.337-5.69-3.245-15.632-5.616-22.226-4.83-6.593.785-12.846 5.097-14.609 11.41-3.112-3.453-8.416-4.164-12.935-2.964h-.104c-5.023 1.037-8.431 5.72-10.505 10.373-2.075 4.653-3.408 9.81-6.594 13.826-.666.83-1.481 1.837-1.111 2.86a2.013 2.013 0 0 0 1.986 1.2 5.924 5.924 0 0 0 2.355-.696l-2.118 3.615c1.697.523 3.491.65 5.245.37.271 4.475.816 8.93 1.63 13.338a7.406 7.406 0 0 1 4.889 1.94c1.482 1.735 1.823 4.669 4.756 3.972 1.482-.34 3.186-3.141 3.868-4.52a71.135 71.135 0 0 0 7.156-29.414 22.91 22.91 0 0 1 7.69-4.09l-.237.163c5.29-1.053 11.231-2.001 15.691 1.037 3.467 2.341 5.127 6.505 7.409 9.958a28.708 28.708 0 0 0 18.936 12.122c-.43 5.127-1.852 12.255-2.282 17.382l5.393-7.572c.43-.549.8-1.112 1.171-1.675l.118-.163c.578-.904 1.141-1.808 1.838-2.697a3.239 3.239 0 0 0 4.511.808 3.242 3.242 0 0 0 .808-4.513 6.627 6.627 0 0 0-1.319-1.748 5.081 5.081 0 0 0 4.623 1.897 3.972 3.972 0 0 0 3.319-3.512 3.427 3.427 0 0 0-1.63-2.964 11.29 11.29 0 0 0 6.638-.534c1.378-.548 2.786-1.57 2.578-3.23Z" fill="#1E1E1E"/><path d="M245.99 14.377c-.713.442-1.391.938-2.029 1.482a13.054 13.054 0 0 0-3.601 5.616 22.808 22.808 0 0 0-1.096 4.535c-.238 1.66-.356 3.467-.489 5.364a48.347 48.347 0 0 1-.667 5.928 21.57 21.57 0 0 1-.845 3.067 6.608 6.608 0 0 1-1.689 2.86 2.738 2.738 0 0 1-2.667.504 4.062 4.062 0 0 1-2.119-1.615 9.5 9.5 0 0 1-1.111-4.831l.37.089a14.805 14.805 0 0 1-2.637 3.423 5.423 5.423 0 0 1-3.778 1.482 3.497 3.497 0 0 1-1.823-.578 3.095 3.095 0 0 1-1.096-1.482 3.204 3.204 0 0 1-.163-1.66c.094-.52.373-.988.785-1.319l.163.193a11.686 11.686 0 0 1-4.282 2.371 10.12 10.12 0 0 1-1.274.311c-.148.02-.297.02-.445 0 .14-.05.284-.09.43-.118.296 0 .711-.178 1.245-.356a12.064 12.064 0 0 0 4.148-2.445l.178.193a2.345 2.345 0 0 0-.489 2.667c.189.515.536.956.993 1.26a3.227 3.227 0 0 0 1.645.518 5.052 5.052 0 0 0 3.511-1.378 14.97 14.97 0 0 0 2.623-3.408l.341-.548v.637a9.117 9.117 0 0 0 1.066 4.623 3.572 3.572 0 0 0 1.882 1.482 2.327 2.327 0 0 0 2.267-.415 6.286 6.286 0 0 0 1.571-2.682c.345-.968.622-1.958.829-2.964.351-1.96.583-3.94.697-5.927.148-1.897.267-3.705.518-5.38a23.106 23.106 0 0 1 1.171-4.593 12.836 12.836 0 0 1 3.763-5.631 7.319 7.319 0 0 1 2.104-1.275ZM299.465 39.658a.701.701 0 0 1-.163.104l-.489.266a7.978 7.978 0 0 1-.845.386c-.379.17-.77.314-1.171.43a16.162 16.162 0 0 1-7.927.325 20.742 20.742 0 0 1-10.371-5.527 35.652 35.652 0 0 1-7.883-12.092c-1.022-2.371-1.778-4.757-2.682-6.994a24.198 24.198 0 0 0-3.274-6.061 12.53 12.53 0 0 0-4.771-3.868 9.075 9.075 0 0 0-2.697-.696 9.806 9.806 0 0 0-2.578.133 10.655 10.655 0 0 0-4.09 1.749 10.367 10.367 0 0 0-2.4 2.37c-.536.805-.973 1.67-1.304 2.579v-.193l.163-.533a9.204 9.204 0 0 1 .963-1.956 10.28 10.28 0 0 1 2.475-2.386 10.782 10.782 0 0 1 4.163-1.852 9.84 9.84 0 0 1 2.667-.163 8.899 8.899 0 0 1 2.801.696A12.709 12.709 0 0 1 265 10.332a24.778 24.778 0 0 1 3.364 6.15c.904 2.252 1.659 4.638 2.667 6.98a35.911 35.911 0 0 0 7.764 11.973 20.624 20.624 0 0 0 10.135 5.512c2.585.567 5.269.5 7.823-.193a26.55 26.55 0 0 0 2.712-1.096Z" fill="#505050"/><path d="M302.206 31.938a2.444 2.444 0 0 1-.711.37 16.69 16.69 0 0 1-2.06.712c-1.039.28-2.1.473-3.171.578a19.419 19.419 0 0 1-7.823-.83 18.401 18.401 0 0 1-2.964-1.216 13.491 13.491 0 0 1-1.852-1.126c-.415-.296-.637-.474-.622-.504.015-.03.963.578 2.608 1.349.955.455 1.946.832 2.963 1.126 1.246.357 2.52.61 3.808.756 1.292.103 2.59.103 3.882 0a22.104 22.104 0 0 0 3.127-.489c1.733-.356 2.785-.8 2.815-.726Z" fill="#505050"/><path d="M364.229 272.254c-.148.178-1.482-.711-3.112-1.556-1.63-.844-3.141-1.348-3.082-1.571a5.615 5.615 0 0 1 3.438.89c1.778.889 2.889 2.089 2.756 2.237Z" fill="#263238"/><path d="M274.068 230.791c0-2.282-16.298-103.939-16.298-103.939-3.364-3.334-41.399-32.26-41.399-32.26l-34.079 39.314s-9.008 31.119-12.046 53.762c-1.985 14.923-11.127 86.083-13.928 116.135a22.883 22.883 0 0 0 9.453 20.747l3.512.429.756 8.995c30.774 1.304 105.333-10.921 106.252-10.373 1.2.771-2.445-84.571-2.223-92.81Z" fill="#FFC701"/><path d="M209.022 169.308s33.471 87.653 52.2 98.411c18.729 10.759 76.085 26.674 76.085 26.674l5.586-2.386 9.557 2.386 15.142-27.889-72.113-37.047s-34.894-92.706-37.369-94.573c-2.474-1.867-8.89-12.611-24.773-5.839-15.884 6.772-29.086 28.215-24.315 40.263Z" fill="#FFC701"/><path d="M276.572 312.502a5.368 5.368 0 0 1-1.066.267l-3.068.622c-2.681.548-6.563 1.23-11.379 2-9.616 1.571-22.981 3.305-37.783 4.846s-28.152 2.742-37.902 3.66l-11.498 1.052-3.126.267a5.02 5.02 0 0 1-1.096 0 5.916 5.916 0 0 1 1.081-.192l3.112-.415c2.696-.341 6.623-.786 11.468-1.304l37.887-3.868c14.817-1.482 28.152-3.201 37.783-4.623a695.335 695.335 0 0 0 11.394-1.764l3.097-.474a5.51 5.51 0 0 1 1.096-.074ZM216.416 139.581a9.48 9.48 0 0 0-1.304 1.793 21.05 21.05 0 0 0-1.837 6.106 45.426 45.426 0 0 0-.578 10.106 50.263 50.263 0 0 0 3.571 12.922c6.786 18.805 16.817 44.575 28.967 72.612 1.481 3.512 2.963 6.95 4.726 10.24a46.942 46.942 0 0 0 5.853 9.143 35.07 35.07 0 0 0 8.416 6.15 116.994 116.994 0 0 0 9.112 4.446c12.15 5.186 23.5 8.891 33.012 11.929 9.513 3.038 17.277 5.335 22.641 6.92l6.178 1.838 1.601.489.533.192a1.973 1.973 0 0 1-.548-.118l-1.63-.415-6.208-1.719c-5.394-1.482-13.173-3.734-22.744-6.683-9.572-2.949-20.907-6.624-33.116-11.855a102.437 102.437 0 0 1-9.187-4.446 35.864 35.864 0 0 1-8.623-6.298 48.023 48.023 0 0 1-5.927-9.291c-1.719-3.32-3.26-6.773-4.756-10.285-12.15-28.007-22.107-53.836-28.774-72.701a50.482 50.482 0 0 1-3.482-13.055c-.15-3.414.089-6.835.711-10.195a19.902 19.902 0 0 1 2-6.135 5.197 5.197 0 0 1 1.393-1.69Z" fill="#263238"/><path d="M295.479 229.472c.118.193-2.964 1.882-6.075 4.92-3.112 3.038-4.964 6.002-5.157 5.927a18.124 18.124 0 0 1 4.623-6.431 16.743 16.743 0 0 1 6.609-4.416Z" fill="#263238"/><path d="M200.888 91.806c-5.379 1.481-9.913 4.979-14.269 8.446l-18.817 14.967c-3.645 2.875-7.409 5.928-9.113 10.373-2.4 6.209.46 13.678 5.72 17.783 5.26 4.104 12.372 5.23 18.995 4.445 6.623-.785 12.861-3.438 18.951-6.194l15.409-45.938c-3.126-4.712-11.513-5.32-16.876-3.882Z" fill="#FFC701"/><path d="M258.273 127.237a9.57 9.57 0 0 1-1.956-.845c-1.244-.592-2.963-1.482-5.156-2.697a152.216 152.216 0 0 1-16.121-10.373c-6.045-4.445-11.32-8.698-15.157-11.751l-4.445-3.66a10.155 10.155 0 0 1-1.586-1.482c.629.339 1.224.736 1.778 1.186 1.112.785 2.712 1.985 4.668 3.452 3.911 2.964 9.245 7.158 15.276 11.574 6.03 4.416 11.705 8.091 15.928 10.58 2.104 1.245 3.823 2.238 5.023 2.964.615.294 1.2.646 1.748 1.052ZM206.429 111.841c-.548.512-1.138.978-1.763 1.393-.593.415-1.289.948-2.089 1.585s-1.719 1.349-2.682 2.193a68.251 68.251 0 0 0-13.335 14.938 70.406 70.406 0 0 0-8.401 18.152c-.697 2.46-1.26 4.446-1.482 5.928a11.36 11.36 0 0 1-.608 2.163 13.43 13.43 0 0 1 .311-2.222c.208-1.482.682-3.468 1.334-5.928a65.506 65.506 0 0 1 8.209-18.523 63.555 63.555 0 0 1 13.587-14.923c1.007-.829 1.941-1.481 2.785-2.119a26.259 26.259 0 0 1 2.164-1.481 12 12 0 0 1 1.97-1.156Z" fill="#263238"/><path d="M205.644 92.754c-13.335 1.334-27.663 15.782-38.598 24.406 4.445 1.008 11.379-3.349 15.454-5.32 10.224-4.949 17.78-13.114 31.278-15.411l3.986-.86c-2.311-2.148-9.216-2.993-12.12-2.815Z" fill="#000" opacity=".3"/><path d="M213.319 96.385s-.726.118-2 .4a23.145 23.145 0 0 0-5.201 1.882c-4.208 2.089-9.616 5.764-15.75 9.558a86.177 86.177 0 0 1-16.492 8.357 43.545 43.545 0 0 1-5.393 1.482 8.89 8.89 0 0 1-2.045.297 14.895 14.895 0 0 1 1.971-.593 66.306 66.306 0 0 0 5.275-1.763 98.871 98.871 0 0 0 16.298-8.506 176.334 176.334 0 0 1 15.914-9.395 20.624 20.624 0 0 1 5.378-1.69c.49-.081.985-.126 1.482-.133.385.06.563.074.563.104ZM261.83 145.405c-.134 0-.489-1.601-1.63-4.016a22.8 22.8 0 0 0-15.558-12.581c-2.593-.608-4.267-.622-4.267-.756a3.717 3.717 0 0 1 1.17-.103c1.075.01 2.146.119 3.201.326a21.555 21.555 0 0 1 15.958 12.892c.413.992.74 2.019.977 3.067.123.378.173.775.149 1.171ZM356.183 287.37a12.539 12.539 0 0 1-3.6-1.349c-1.226-.41-2.384-1-3.438-1.749a8.22 8.22 0 0 1 3.749 1.038 8.106 8.106 0 0 1 3.289 2.06ZM360.644 280.064a64.096 64.096 0 0 1-7.038-4.105 8.524 8.524 0 0 1 3.852 1.482 8.635 8.635 0 0 1 3.186 2.623Z" fill="#263238"/><path d="M214.578 165.929c4.623 35.18 9.854 71.96 30.627 100.768 5.482 7.587 13.335 15.041 22.67 14.345 3.734-.282 8.045-3.512 6.564-6.95 0 .34-4.016-1.69-6.846-3.616-6.208-4.194-11.705-5.928-15.676-12.359s-7.216-15.1-10.105-22.021c-9.068-21.724-19.914-48.028-27.234-70.122" fill="#000" opacity=".3"/><path d="M194.813 334.33a12.06 12.06 0 0 1-1.586-5.364 12.316 12.316 0 0 1 .267-5.587c.222 0 .133 2.49.504 5.498.37 3.008.963 5.394.815 5.453ZM208.8 331.84a33.647 33.647 0 0 1-.934-10.032c.531 1.608.821 3.286.86 4.979.285 1.671.31 3.375.074 5.053ZM225.202 329.262a17.163 17.163 0 0 1-1.185-4.95 16.432 16.432 0 0 1-.415-5.083 17.084 17.084 0 0 1 1.171 4.95 17.38 17.38 0 0 1 .429 5.083ZM239.53 328.388a41.753 41.753 0 0 1-1.007-4.876 41.186 41.186 0 0 1-1.186-4.845 10.635 10.635 0 0 1 1.927 4.667 10.38 10.38 0 0 1 .266 5.054ZM254.081 325.869a12.409 12.409 0 0 1-1.141-4.179 11.74 11.74 0 0 1-.341-4.283 12.558 12.558 0 0 1 1.141 4.164c.367 1.402.482 2.857.341 4.298ZM267.135 325.261c-.223 0-.297-2.43-.83-5.35-.534-2.919-1.29-5.231-1.082-5.305a16.555 16.555 0 0 1 1.912 10.655ZM246.998 261.777c.147.566.217 1.149.207 1.734.049.686.049 1.374 0 2.06.016.91-.024 1.821-.118 2.726a39.192 39.192 0 0 1-1.215 7.01 44.522 44.522 0 0 1-3.156 8.135 45.522 45.522 0 0 1-4.786 7.276 39.7 39.7 0 0 1-5.008 5.068c-.741.682-1.482 1.2-2.149 1.689-.542.418-1.111.799-1.704 1.141a8.128 8.128 0 0 1-1.481.845c-.089-.133 2.059-1.408 5.038-4.075a44.464 44.464 0 0 0 4.8-5.113 43.126 43.126 0 0 0 7.764-15.159 43.545 43.545 0 0 0 1.363-6.861c.504-3.971.297-6.476.445-6.476Z" fill="#263238"/><path d="m233.337 294.704.489-.385a39.126 39.126 0 0 0 12.683-22.495c-6.549 5.572-11.231 14.582-13.172 22.88Z" fill="#000" opacity=".3"/><path d="M229.648 319.007a22.88 22.88 0 0 1-2.801-16.804 74.23 74.23 0 0 0 .534 8.535 77.285 77.285 0 0 0 2.267 8.269ZM253.339 259.125c.089.192-1.14.918-2.726 1.615a6.855 6.855 0 0 1-2.963.919c-.074-.208 1.141-.919 2.726-1.63a6.76 6.76 0 0 1 2.963-.904ZM181.774 334.389a8.963 8.963 0 0 1-1.882-5.053 8.742 8.742 0 0 1 .711-5.335c.223 0-.281 2.386 0 5.261.282 2.875 1.379 5.023 1.171 5.127Z" fill="#263238"/><path d="m363.19 370.957-24.21 53.282 20.817 194.181a8.769 8.769 0 0 0 8.713 7.827h113.617a8.768 8.768 0 0 0 8.727-7.897l19.072-193.52-23.928-53.873H363.19Z" fill="#455A64"/><path d="M509.264 429.152H337.403a5.15 5.15 0 0 1-5.137-5.152 5.15 5.15 0 0 1 5.137-5.139h171.861a5.15 5.15 0 0 1 4.76 7.11 5.17 5.17 0 0 1-2.788 2.789 5.15 5.15 0 0 1-1.972.392Z" fill="#455A64"/><path d="m387.554 370.957-8.079 38.909h93.109l-6.686-38.909h-78.344Z" fill="#263238"/><path d="M385.921 626.247h-16.707v9.319h16.707v-9.319ZM480.944 626.247h-16.707v9.319h16.707v-9.319Z" fill="#455A64"/><path d="M472.584 477.62V488.487c0 7.123 0 17.498.084 30.59 0 26.282.099 63.46.169 107.17v.338h-95.713v-.366c0-56.239 0-108.029.07-148.627v-.282h.296l69.364.155H472.499h-6.728l-19.086.07-69.195.155.282-.295c0 40.598 0 92.388.084 148.627l-.366-.366h95.009l-.338.338c0-43.64.127-80.719.169-106.987 0-13.12 0-23.509.085-30.646V478.07c0-.492.169-.45.169-.45ZM509.391 428.617c0 .211-38.229.366-85.368.366-47.138 0-85.367-.155-85.367-.366s38.215-.366 85.367-.366c47.153 0 85.368.169 85.368.366ZM509.391 418.862c0 .197-38.229.366-85.368.366-47.138 0-85.367-.169-85.367-.366 0-.198 38.215-.367 85.367-.367 47.153 0 85.368.169 85.368.367Z" fill="#263238"/><path d="M482.127 626.304c0 .197-25.843.366-57.71.366-31.866 0-57.709-.169-57.709-.366 0-.198 25.829-.366 57.709-.366 31.881 0 57.71.197 57.71.366Z" fill="#263238"/><defs><linearGradient id="a" x1="608" y1="603" x2="588" y2="635" gradientUnits="userSpaceOnUse"><stop/><stop offset=".332"/><stop offset=".399" stop-color="#fff"/><stop offset="1" stop-color="#fff"/></linearGradient><linearGradient id="b" x1="588.7" y1="567.652" x2="588.7" y2="635.995" gradientUnits="userSpaceOnUse"><stop/><stop offset=".432"/><stop offset=".456" stop-color="#fff"/><stop offset="1" stop-color="#fff"/></linearGradient><linearGradient id="c" x1="570" y1="601" x2="588.5" y2="635.5" gradientUnits="userSpaceOnUse"><stop/><stop offset=".454"/><stop offset=".485" stop-color="#fff"/><stop offset="1" stop-color="#fff"/></linearGradient></defs></svg>