<svg width="121" height="43" fill="none" xmlns="http://www.w3.org/2000/svg"><path d="M17.187 33.46c-.83.681-1.851 1.23-3.066 1.644a11.578 11.578 0 0 1-3.598.577c-2.074 0-3.895-.4-5.465-1.2-1.57-.799-2.799-1.94-3.687-3.42C.51 29.58.082 27.818.082 25.774s.46-3.806 1.378-5.287c.947-1.48 2.176-2.606 3.687-3.376 1.51-.8 3.14-1.2 4.887-1.2 1.57 0 2.962.222 4.176.666 1.215.415 2.266.993 3.155 1.733l-2.488 3.243c-.474-.385-1.096-.74-1.866-1.066-.74-.355-1.585-.533-2.533-.533a5.205 5.205 0 0 0-2.754.755c-.8.504-1.451 1.2-1.955 2.088-.474.86-.71 1.851-.71 2.977 0 1.6.547 2.977 1.643 4.132 1.096 1.125 2.518 1.688 4.265 1.688 1.451 0 2.695-.415 3.732-1.244l2.488 3.11ZM22.29 35.193V.539h4.886v19.104c.652-1.185 1.6-2.147 2.844-2.888 1.273-.77 2.784-1.155 4.531-1.155 1.748 0 3.199.533 4.354 1.6 1.185 1.036 1.792 2.384 1.822 4.042v13.95H35.75V23.02c-.06-.947-.34-1.703-.844-2.265-.474-.593-1.26-.904-2.355-.933-1.54 0-2.814.666-3.82 1.999-.978 1.333-1.467 3.006-1.467 5.02v8.353h-4.976ZM46.028 25.596c0-1.895.445-3.598 1.333-5.109a10.122 10.122 0 0 1 3.732-3.599c1.6-.888 3.436-1.332 5.51-1.332 2.102 0 3.924.444 5.464 1.332 1.57.889 2.784 2.088 3.643 3.6.859 1.51 1.288 3.213 1.288 5.108 0 1.896-.43 3.614-1.288 5.154-.86 1.51-2.073 2.71-3.643 3.599-1.57.888-3.406 1.332-5.51 1.332-2.043 0-3.864-.4-5.464-1.2-1.57-.828-2.814-1.998-3.732-3.509-.888-1.51-1.333-3.303-1.333-5.376Zm3.833 0c0 1.126.758 2.981 1.232 3.9.474.888 1.761 1.837 2.56 2.37.83.503 1.809.948 2.845.948 1.63 0 3.501-.939 4.508-2.064 1.007-1.155 2.13-3.465 2.13-5.154 0-1.688-1.364-4.427-2.37-5.582-1.008-1.155-3.113-1.423-4.742-1.423-1.036 0-2.015.386-2.844.948-.8.534-1.897.979-2.37 1.897-.474.888-.949 3.064-.949 4.16ZM72.227 16.4h4.976v18.793h-4.976V16.4Zm-.222-6.709c0-.77.296-1.407.888-1.91.622-.504 1.289-.755 2-.755.68 0 1.317.251 1.91.755.592.503.888 1.14.888 1.91s-.296 1.407-.888 1.91c-.593.474-1.23.711-1.91.711-.711 0-1.378-.237-2-.71-.592-.504-.888-1.14-.888-1.91ZM88.515 16.4l.356 4.354a8.552 8.552 0 0 1 2.177-2.755c.918-.8 1.85-1.407 2.798-1.821.978-.415 1.778-.622 2.4-.622l-.223 4.976c-1.421-.119-2.665.133-3.731.755a6.688 6.688 0 0 0-2.444 2.532 6.792 6.792 0 0 0-.844 3.288v8.086h-4.976V16.4h4.487ZM108.727 35.681c-1.778 0-3.377-.37-4.799-1.11-1.421-.74-2.562-1.837-3.421-3.288-.829-1.451-1.244-3.273-1.244-5.465 0-2.132.43-3.954 1.289-5.464.888-1.54 2.044-2.725 3.465-3.554a9.335 9.335 0 0 1 4.71-1.244c1.747 0 3.154.34 4.22 1.021 1.096.652 1.97 1.437 2.621 2.355l.356-2.532h4.576v18.793h-4.976v-2.755c-.326.385-.8.83-1.422 1.333-.622.503-1.392.948-2.31 1.333-.888.385-1.91.577-3.065.577Zm1.377-4.087c1.333 0 2.473-.355 3.421-1.066.948-.711 1.614-1.688 1.999-2.932v-4.088c-.355-1.155-1.037-2.088-2.044-2.799-1.007-.71-2.191-1.066-3.554-1.066a5.518 5.518 0 0 0-2.843.755c-.83.474-1.511 1.17-2.044 2.088-.503.889-.755 1.91-.755 3.066 0 1.125.266 2.147.8 3.065a6.138 6.138 0 0 0 2.088 2.177c.888.533 1.866.8 2.932.8Z" fill="#fff"/><path fill-rule="evenodd" clip-rule="evenodd" d="M67.527 36.025c.75.724.706 1.86-.098 2.536-4.324 3.638-8.925 4.47-12.917 3.914-3.887-.54-7.084-2.372-8.888-3.93-.794-.685-.822-1.82-.062-2.537.76-.716 2.02-.74 2.814-.055 1.333 1.15 3.81 2.568 6.742 2.975 2.828.394 6.194-.129 9.596-2.991.803-.676 2.063-.637 2.813.088Z" fill="#fff"/><path d="M45.594 25.68c0-1.965.462-3.73 1.387-5.296.954-1.566 2.248-2.809 3.88-3.73 1.664-.92 3.574-1.381 5.73-1.381 2.187 0 4.081.46 5.683 1.381 1.632.921 2.895 2.164 3.788 3.73.894 1.566 1.34 3.33 1.34 5.296 0 1.964-.446 3.745-1.34 5.341-.893 1.566-2.156 2.809-3.788 3.73-1.633.921-3.542 1.382-5.73 1.382-2.125 0-4.019-.415-5.682-1.244a9.822 9.822 0 0 1-3.881-3.638c-.925-1.565-1.387-3.423-1.387-5.571Zm5.221.046c0 1.166.247 2.225.74 3.177a6.002 6.002 0 0 0 1.986 2.21c.863.522 1.833.783 2.911.783 1.694 0 3.065-.583 4.112-1.75 1.048-1.197 1.571-2.67 1.571-4.42s-.523-3.224-1.57-4.421c-1.048-1.197-2.419-1.796-4.113-1.796-1.078 0-2.048.292-2.91.875-.832.553-1.495 1.305-1.987 2.256-.493.921-.74 1.95-.74 3.086Z" fill="#FFC701"/></svg>