<svg xmlns="http://www.w3.org/2000/svg" width="500" viewBox="0 0 375 375" height="500" version="1.0"><defs><clipPath id="a"><path d="M3.285 6H366v107H3.285Zm0 0"/></clipPath><clipPath id="b"><path d="M3.285 93H366v239H3.285Zm0 0"/></clipPath><clipPath id="c"><path d="M3.285 0h368.25v375H3.285Zm0 0"/></clipPath></defs><g clip-path="url(#a)"><path fill="#e3861c" d="M2.965 112.5V25c0-10.352 8.398-18.75 18.75-18.75h88.695c7.3 0 14.383 2.563 19.996 7.25l20.117 16.75a31.211 31.211 0 0 0 19.997 7.25h176.195c10.351 0 18.75 8.398 18.75 18.75v56.25H2.965"/></g><path fill="#fff" d="M34.215 100V81.25c0-10.375 8.375-18.75 18.75-18.75h262.5c10.375 0 18.75 8.375 18.75 18.75V100h-300"/><g clip-path="url(#b)"><path fill="#fab31f" d="M346.715 331.25h-325c-10.352 0-18.75-8.398-18.75-18.75v-200c0-10.352 8.398-18.75 18.75-18.75h325c10.351 0 18.75 8.398 18.75 18.75v200c0 10.352-8.399 18.75-18.75 18.75"/></g><path fill="#e73554" d="M290.465 162.5v150c0 20.68-16.82 37.5-37.5 37.5s-37.5-16.82-37.5-37.5 16.82-37.5 37.5-37.5c4.37 0 8.57.758 12.5 2.172V206.25c0-3.688-3.246-6.617-6.934-6.176l-112.5 11.985c-3.125.367-5.566 3.054-5.566 6.25V331.25c0 20.68-16.82 37.5-37.5 37.5s-37.5-16.82-37.5-37.5 16.82-37.5 37.5-37.5c4.37 0 8.57.758 12.5 2.172V177.246c0-9.621 7.25-17.629 16.75-18.676l137.5-14.699c11.058-1.172 20.75 7.496 20.75 18.629"/><g clip-path="url(#c)"><path fill="#1d1e1f" d="M346.715 87.5h-6.25v-6.25c0-13.793-11.207-25-25-25h-262.5c-13.793 0-25 11.207-25 25v6.25h-6.25c-4.567 0-8.813 1.316-12.5 3.465V25c0-6.883 5.617-12.5 12.5-12.5h88.695c5.813 0 11.5 2.05 15.992 5.785L146.52 35.06a37.556 37.556 0 0 0 24 8.691h176.195c6.887 0 12.5 5.613 12.5 12.5v34.715c-3.688-2.149-7.934-3.465-12.5-3.465Zm-18.75 0h-287.5v-6.25c0-6.887 5.617-12.5 12.5-12.5h262.5c6.887 0 12.5 5.613 12.5 12.5Zm-75 256.25c-17.235 0-31.25-14.016-31.25-31.25 0-17.238 14.015-31.25 31.25-31.25 3.59 0 7.082.61 10.351 1.805 1.93.71 4.055.418 5.739-.754a6.276 6.276 0 0 0 2.66-5.13V206.25c0-3.566-1.54-6.957-4.2-9.328-2.66-2.367-6.152-3.488-9.667-3.074l-112.575 12.011c-6.296.758-11.058 6.102-11.058 12.45V331.25c0 17.234-14.012 31.25-31.25 31.25-17.235 0-31.25-14.016-31.25-31.25 0-17.238 14.015-31.25 31.25-31.25 3.59 0 7.082.61 10.351 1.805 1.93.71 4.055.418 5.739-.754a6.276 6.276 0 0 0 2.66-5.13V177.247c0-6.398 4.808-11.77 11.156-12.476l137.5-14.672c3.64-.391 7.031.73 9.695 3.125 2.684 2.418 4.149 5.687 4.149 9.277v150c0 17.234-14.012 31.25-31.25 31.25ZM146.715 325l-.024-106.738 112.524-12.012v62.965a40.57 40.57 0 0 0-6.25-.465c-24.121 0-43.75 19.629-43.75 43.75 0 4.344.66 8.52 1.832 12.5Zm200-293.75H170.52c-5.813 0-11.5-2.05-15.993-5.785L134.41 8.69a37.556 37.556 0 0 0-24-8.691H21.715c-13.793 0-25 11.207-25 25v118.75c0 3.441 2.808 6.25 6.25 6.25 3.441 0 6.25-2.809 6.25-6.25V112.5c0-6.887 5.617-12.5 12.5-12.5h325c6.887 0 12.5 5.613 12.5 12.5v200c0 6.883-5.613 12.5-12.5 12.5h-51.832c1.172-3.98 1.832-8.156 1.832-12.5v-150a24.992 24.992 0 0 0-8.3-18.578c-5.274-4.738-12.353-7.031-19.36-6.25L131.53 152.344c-12.722 1.441-22.316 12.133-22.316 24.902v110.719a40.57 40.57 0 0 0-6.25-.465c-21.996 0-40.184 16.332-43.238 37.5H21.715c-6.883 0-12.5-5.617-12.5-12.5V168.75c0-3.441-2.809-6.25-6.25-6.25-3.442 0-6.25 2.809-6.25 6.25V312.5c0 13.793 11.207 25 25 25h38.012c3.054 21.168 21.242 37.5 43.238 37.5s40.187-16.332 43.238-37.5h70.922c7.91 11.328 21.02 18.75 35.84 18.75 14.82 0 27.93-7.422 35.84-18.75h57.91c13.793 0 25-11.207 25-25V56.25c0-13.793-11.207-25-25-25"/></g></svg>