<svg width="24" height="24" fill="none" xmlns="http://www.w3.org/2000/svg"><path fill-rule="evenodd" clip-rule="evenodd" d="M20.44 17.17c.547.53.515 1.36-.071 1.854-3.157 2.66-6.516 3.267-9.431 2.862-2.838-.395-5.172-1.735-6.49-2.873-.58-.501-.6-1.332-.045-1.855.555-.523 1.475-.541 2.055-.04.973.84 2.781 1.877 4.922 2.175 2.065.287 4.522-.095 7.006-2.187.587-.494 1.506-.465 2.054.064Z" fill="#1E1E1E"/><path d="M4.432 9.607c0-1.436.337-2.726 1.012-3.87A7.679 7.679 0 0 1 8.277 3.01C9.492 2.337 10.886 2 12.46 2c1.597 0 2.98.337 4.15 1.01 1.191.673 2.113 1.582 2.765 2.726.653 1.145.979 2.435.979 3.871 0 1.437-.326 2.738-.979 3.905-.652 1.145-1.574 2.053-2.766 2.727-1.192.673-2.586 1.01-4.183 1.01-1.551 0-2.934-.303-4.149-.91a7.175 7.175 0 0 1-2.833-2.659c-.675-1.144-1.012-2.502-1.012-4.073Zm3.811.034c0 .853.18 1.627.54 2.323.36.673.844 1.211 1.45 1.615.63.382 1.339.573 2.126.573 1.237 0 2.238-.427 3.002-1.28.765-.875 1.147-1.952 1.147-3.23 0-1.28-.382-2.357-1.147-3.232-.764-.876-1.765-1.313-3.002-1.313-.787 0-1.496.213-2.125.64a4.32 4.32 0 0 0-1.45 1.649c-.36.673-.54 1.425-.54 2.255Z" fill="#FFC701"/></svg>