<svg width="24" height="24" fill="none" xmlns="http://www.w3.org/2000/svg"><path d="M10.353 7.295a.719.719 0 0 1 .314-.072h4.55a9.34 9.34 0 0 1 1.501.11 6.22 6.22 0 0 1 .917.224c.226.076.436.166.63.27.227-1.478-.003-2.484-.788-3.394C16.61 3.43 15.049 3 13.049 3H7.244a.836.836 0 0 0-.82.713L4.005 19.305a.504.504 0 0 0 .492.586h3.584L9.95 7.847a.747.747 0 0 1 .404-.552Z" fill="#27346A"/><path d="M18.21 8.173c-.765 3.998-3.384 5.38-6.73 5.38H9.778a.832.832 0 0 0-.817.714l-1.12 7.22a.441.441 0 0 0 .43.513h3.021a.72.72 0 0 0 .473-.177.743.743 0 0 0 .245-.447l.03-.157.569-3.67.037-.203a.742.742 0 0 1 .245-.447.72.72 0 0 1 .472-.177h.452c2.927 0 5.218-1.21 5.887-4.707.28-1.461.135-2.682-.604-3.539a2.892 2.892 0 0 0-.827-.649 9.913 9.913 0 0 1-.06.346Z" fill="#2790C3"/><path d="M17.477 4.433C16.612 3.43 15.049 3 13.049 3H7.244a.823.823 0 0 0-.54.203.85.85 0 0 0-.28.51L4.005 19.306a.504.504 0 0 0 .493.586h3.583l.9-5.807-.028.182a.833.833 0 0 1 .818-.713h1.703c3.345 0 5.964-1.383 6.73-5.381.022-.118.042-.233.059-.346-.096-.052-.096-.052 0 0 .228-1.478-.002-2.484-.787-3.394Z" fill="#27346A"/><path d="M17.463 7.503a5.497 5.497 0 0 0-.745-.168 9.285 9.285 0 0 0-1.501-.111h-4.55a.727.727 0 0 0-.718.624l-.967 6.238-.028.182a.832.832 0 0 1 .818-.713h1.703c3.345 0 5.964-1.383 6.73-5.381.022-.118.042-.233.06-.346a4.094 4.094 0 0 0-.802-.325" fill="#1F264F"/></svg>