<svg width="160" height="45" fill="none" xmlns="http://www.w3.org/2000/svg"><g clip-path="url(#a)"><path d="M109.872 35.356v-8.17c0-2.01-.728-3.016-2.548-3.016-.728 0-1.578.126-2.063.251v11.94c0 .378-.365.755-.729.755h-2.792c-.364 0-.728-.377-.728-.754V22.41c0-.503.364-.88.728-1.006 1.821-.628 3.642-1.005 5.583-1.005 4.37 0 6.797 2.388 6.797 6.787v9.3c0 .378-.364.755-.728.755h-1.699c-1.092 0-1.821-.88-1.821-1.886Zm10.924-4.902-.121 1.132c0 1.508.971 2.388 2.548 2.388 1.214 0 2.306-.377 3.52-1.006.122 0 .243-.126.364-.126.243 0 .365.126.486.252.122.125.364.503.364.503.243.377.486.88.486 1.256 0 .628-.364 1.257-.849 1.509-1.335.754-2.913 1.13-4.612 1.13-1.942 0-3.52-.502-4.734-1.508-1.213-1.13-1.941-2.639-1.941-4.524v-4.902c0-3.896 2.427-6.284 6.554-6.284 4.005 0 6.311 2.263 6.311 6.284v3.016c0 .377-.364.754-.728.754h-7.646l-.002.127Zm-.121-2.765h4.612v-1.256c0-1.509-.85-2.514-2.306-2.514-1.457 0-2.306.88-2.306 2.514v1.256Zm30.95 2.765-.122 1.132c0 1.508.971 2.388 2.549 2.388 1.213 0 2.306-.377 3.52-1.006.122 0 .243-.126.364-.126.243 0 .364.126.486.252.122.125.364.503.364.503.243.377.486.88.486 1.256 0 .628-.364 1.257-.849 1.509-1.335.754-2.913 1.13-4.612 1.13-1.942 0-3.52-.502-4.734-1.508-1.213-1.13-1.942-2.639-1.942-4.524v-4.902c0-3.896 2.428-6.284 6.555-6.284 4.005 0 6.311 2.263 6.311 6.284v3.016c0 .377-.364.754-.728.754h-7.647v.127h-.001Zm-.122-2.765h4.612v-1.256c0-1.509-.849-2.514-2.306-2.514-1.456 0-2.306.88-2.306 2.514v1.256Zm-71.367 9.552h1.7c.364 0 .728-.377.728-.754v-9.3c0-4.274-2.185-6.788-5.826-6.788-1.093 0-2.306.251-3.035.503v-4.65c0-1.006-.849-1.886-1.82-1.886h-1.7c-.364 0-.728.377-.728.754v21.367c0 .377.364.754.728.754h2.792c.364 0 .728-.377.728-.754V24.673c.607-.252 1.457-.377 2.064-.377 1.82 0 2.548.879 2.548 3.016v8.17c.122.88.85 1.76 1.821 1.76Zm18.328-10.558v4.65c0 3.897-2.549 6.285-6.797 6.285-4.127 0-6.797-2.388-6.797-6.284v-4.65c0-3.897 2.548-6.285 6.797-6.285 4.248 0 6.797 2.389 6.797 6.284Zm-4.248 0c0-1.508-.85-2.513-2.428-2.513-1.578 0-2.427.88-2.427 2.513v4.65c0 1.51.849 2.389 2.427 2.389 1.579 0 2.428-.88 2.428-2.388v-4.65ZM67.15 24.547c0 4.023-2.913 6.788-6.797 6.788-.971 0-1.821-.126-2.67-.503v5.655c0 .378-.364.755-.729.755h-2.791c-.365 0-.729-.377-.729-.755V16.503c0-.503.364-.879.729-1.005 1.82-.628 3.64-1.005 5.582-1.005 4.37 0 7.404 2.765 7.404 7.038v3.016Zm-4.37-3.268c0-2.01-1.335-3.016-3.156-3.016-1.092 0-1.82.377-1.82.377v8.295c.728.377 1.092.503 1.941.503 1.821 0 3.156-1.131 3.156-3.016V21.28h-.12Zm82.776 3.268c0 4.023-2.912 6.788-6.797 6.788-.97 0-1.82-.126-2.67-.503v5.655c0 .378-.364.755-.728.755h-2.792c-.364 0-.728-.377-.728-.755V16.503c0-.503.364-.879.728-1.005 1.821-.628 3.641-1.005 5.583-1.005 4.369 0 7.404 2.765 7.404 7.038v3.016Zm-4.369-3.268c0-2.01-1.335-3.016-3.156-3.016-1.092 0-1.821.377-1.821.377v8.295c.729.377 1.093.503 1.942.503 1.821 0 3.156-1.131 3.156-3.016V21.28h-.121ZM21.727 44.998c11.999 0 21.726-10.073 21.726-22.498S33.726.002 21.727.002C9.727.002 0 10.075 0 22.5s9.727 22.498 21.726 22.498Z" fill="#fff"/><path d="M31.587 16.629c0-.88-.728-1.634-1.577-1.634h-2.913l-6.675-7.918c-.607-.754-1.578-1.005-2.549-.754l-2.306.754c-.364.126-.486.629-.242.88l7.282 7.164H11.56c-.364 0-.607.251-.607.628v1.257c0 .88.728 1.634 1.578 1.634h1.699v6.033c0 4.524 2.306 7.164 6.19 7.164 1.214 0 2.185-.126 3.399-.628v4.022c0 1.131.849 2.01 1.941 2.01h1.7c.364 0 .728-.376.728-.754V18.514h2.792c.364 0 .606-.25.606-.628v-1.257ZM23.82 27.438c-.729.377-1.7.503-2.428.503-1.942 0-2.913-1.006-2.913-3.268V18.64h5.34v8.798Z" fill="#000"/></g><defs><clipPath id="a"><path fill="#fff" d="M0 0h160v45H0z"/></clipPath></defs></svg>