<svg width="174" height="88" fill="none" xmlns="http://www.w3.org/2000/svg"><path fill-rule="evenodd" clip-rule="evenodd" d="m92.044 23.928-9.055 1.985V18.49l9.055-1.904v7.341Zm18.787 4.105a10.238 10.238 0 0 0-7.055 2.828l-.46-2.23h-7.947v42.25l9.029-1.903V58.7c1.324.952 3.243 2.284 6.406 2.284 6.433 0 12.326-5.22 12.326-16.693-.054-10.522-6.001-16.259-12.299-16.259Zm-2.163 24.986a5.377 5.377 0 0 1-4.243-1.713l-.027-13.43c.919-1.088 2.216-1.795 4.27-1.795 3.298 0 5.569 3.697 5.569 8.428 0 4.894-2.244 8.51-5.569 8.51Zm42.872-8.374c0-9.27-4.46-16.584-13.002-16.584-8.596 0-13.786 7.313-13.786 16.502 0 10.93 6.136 16.422 14.921 16.422 4.298 0 7.542-.979 10.002-2.338v-7.26c-2.46 1.224-5.271 1.985-8.839 1.985-3.514 0-6.596-1.223-7.001-5.492h17.624l.027-1.196.054-2.039Zm-17.814-3.453c0-4.078 2.487-5.79 4.758-5.79 2.216 0 4.541 1.712 4.541 5.79h-9.299ZM92.071 28.66h-9.055v31.7h9.055v-31.7Zm-19.327 0 .568 2.691c2.135-3.915 6.352-3.126 7.514-2.718v8.373c-1.135-.408-4.73-.924-6.866 1.876V60.36H64.96v-31.7h7.785Zm-17.462-7.885-8.785 1.903-.028 29.037a9.155 9.155 0 0 0 .65 3.617 9.112 9.112 0 0 0 2.019 3.063 9.05 9.05 0 0 0 3.058 2.012 9.01 9.01 0 0 0 3.6.633c2.973 0 5.135-.544 6.298-1.196v-7.368c-1.136.462-6.84 2.148-6.84-3.235V36.38h6.84v-7.721h-6.84l.028-7.885ZM34.008 35.918c-1.92 0-3.081.544-3.081 1.957 0 1.523 2 2.203 4.46 3.045 4 1.36 9.298 3.181 9.325 9.897 0 6.47-5.163 10.195-12.65 10.195-3.109 0-6.488-.598-9.84-2.04V50.3a22.34 22.34 0 0 0 9.84 2.91c2 0 3.46-.545 3.46-2.203 0-1.713-2.163-2.501-4.758-3.453-3.973-1.414-8.974-3.235-8.974-9.217 0-6.416 4.866-10.276 12.164-10.276 3 0 5.947.489 8.947 1.685v8.51a20.02 20.02 0 0 0-8.92-2.311l.027-.027Z" fill="#fff"/></svg>