<svg xmlns="http://www.w3.org/2000/svg" fill="#FFF" viewBox="0 0 96 96"><path fill="#FFB900" d="m45 24-4.243-4.243A6 6 0 0 0 36.515 18H9a3 3 0 0 0-3 3v56a1 1 0 0 0 1 1h82a1 1 0 0 0 1-1V27a3 3 0 0 0-3-3H45z"/><path fill="#FFD75E" d="m45 24-4.243 4.243A6 6 0 0 1 36.515 30H6v47a1 1 0 0 0 1 1h82a1 1 0 0 0 1-1V27a3 3 0 0 0-3-3H45z"/><linearGradient id="a" x1="48" x2="48" y1="24" y2="78" gradientUnits="userSpaceOnUse"><stop offset="0" stop-color="#fff" stop-opacity="0"/><stop offset="1" stop-color="#ffd75e" stop-opacity=".3"/></linearGradient><path fill="url(#a)" d="m45 24-4.243 4.243A6 6 0 0 1 36.515 30H6v47a1 1 0 0 0 1 1h82a1 1 0 0 0 1-1V27a3 3 0 0 0-3-3H45z"/><path d="M6 30v1h30.6a7 7 0 0 0 4.95-2.05L46.5 24H45l-4.243 4.243A6 6 0 0 1 36.515 30H6z" opacity=".4"/><path fill="#DA7B16" d="M89 78H7a1 1 0 0 1-1-1h84a1 1 0 0 1-1 1z"/><path fill="#E99E0C" d="M44 59a1 1 0 0 1-1-1v-8a1 1 0 1 1 2 0v8a1 1 0 0 1-1 1zm5 0a1 1 0 0 1-1-1v-8a1 1 0 1 1 2 0v8a1 1 0 0 1-1 1zm5 0a1 1 0 0 1-1-1v-8a1 1 0 1 1 2 0v8a1 1 0 0 1-1 1zm5 0a1 1 0 0 1-1-1v-8a1 1 0 1 1 2 0v8a1 1 0 0 1-1 1zm5 0a1 1 0 0 1-1-1v-8a1 1 0 1 1 2 0v8a1 1 0 0 1-1 1zm5 0a1 1 0 0 1-1-1v-8a1 1 0 1 1 2 0v8a1 1 0 0 1-1 1zm5 0a1 1 0 0 1-1-1v-8a1 1 0 1 1 2 0v8a1 1 0 0 1-1 1zm5 0a1 1 0 0 1-1-1v-8a1 1 0 1 1 2 0v8a1 1 0 0 1-1 1zm5 0a1 1 0 0 1-1-1v-8a1 1 0 1 1 2 0v8a1 1 0 0 1-1 1zm5 0a1 1 0 0 1-1-1v-8a1 1 0 1 1 2 0v8a1 1 0 0 1-1 1zM38 47H11a2 2 0 0 0-2 2h2a1 1 0 0 1 1 1v8a1 1 0 0 1-1 1H9a2 2 0 0 0 2 2h27a2 2 0 0 0 2-2V49a2 2 0 0 0-2-2zm-1 11a1 1 0 0 1-1 1h-8a1 1 0 0 1-1-1v-8a1 1 0 0 1 1-1h8a1 1 0 0 1 1 1v8zM8 59H6V49h2a1 1 0 0 1 1 1v8a1 1 0 0 1-1 1z"/></svg>