<svg xmlns="http://www.w3.org/2000/svg" width="32" height="28" fill="none"><g fill="#fff" clip-path="url(#a)"><path d="M3 14.407c0-2.342.55-4.447 1.653-6.313C5.79 6.227 7.333 4.745 9.28 3.647 11.263 2.549 13.54 2 16.11 2c2.608 0 4.866.549 6.776 1.647 1.946 1.098 3.452 2.58 4.517 4.447C28.468 9.96 29 12.064 29 14.407c0 2.343-.532 4.465-1.598 6.369-1.064 1.866-2.57 3.349-4.516 4.447-1.947 1.098-4.224 1.647-6.83 1.647-2.535 0-4.793-.495-6.776-1.483a11.71 11.71 0 0 1-4.627-4.337C3.55 19.184 3 16.97 3 14.407Zm6.225.055c0 1.391.293 2.654.88 3.788.588 1.098 1.378 1.977 2.37 2.636 1.028.622 2.185.933 3.47.933 2.02 0 3.654-.696 4.902-2.086 1.25-1.428 1.873-3.185 1.873-5.27 0-2.087-.624-3.844-1.872-5.271-1.25-1.428-2.883-2.141-4.903-2.141-1.285 0-2.442.347-3.47 1.043-.992.659-1.781 1.555-2.37 2.69-.587 1.098-.88 2.324-.88 3.678Z"/><path fill-rule="evenodd" d="M27.748 28.601c.79.765.745 1.962-.103 2.675-4.56 3.837-9.412 4.714-13.623 4.129-4.1-.57-7.47-2.502-9.374-4.145-.838-.723-.867-1.92-.065-2.676.801-.755 2.13-.781 2.967-.059 1.406 1.214 4.019 2.709 7.111 3.139 2.983.414 6.532-.137 10.12-3.155.848-.713 2.176-.672 2.967.092Z" clip-rule="evenodd"/></g><defs><clipPath id="a"><path fill="#fff" d="M0 0h32v28H0z"/></clipPath></defs></svg>