<svg xmlns="http://www.w3.org/2000/svg" width="127" height="45" fill="none"><path fill="#fff" d="M18.04 35.181c-.875.719-1.953 1.297-3.233 1.734a12.21 12.21 0 0 1-3.796.61c-2.186 0-4.108-.422-5.763-1.266-1.656-.843-2.952-2.046-3.89-3.608C.454 31.09 0 29.231 0 27.075c0-2.155.484-4.014 1.453-5.576 1-1.561 2.295-2.748 3.889-3.56a10.85 10.85 0 0 1 5.154-1.266c1.655 0 3.123.235 4.404.703 1.281.437 2.39 1.046 3.327 1.827l-2.624 3.42c-.5-.405-1.156-.78-1.968-1.124-.78-.374-1.671-.562-2.67-.562a5.49 5.49 0 0 0-2.906.797c-.843.53-1.53 1.265-2.061 2.202-.5.906-.75 1.952-.75 3.14 0 1.686.578 3.139 1.734 4.357 1.155 1.187 2.655 1.78 4.498 1.78 1.53 0 2.842-.437 3.936-1.312l2.624 3.28ZM23.42 37.009V.46h5.155v20.148c.687-1.25 1.687-2.265 2.999-3.046 1.343-.812 2.936-1.218 4.78-1.218 1.842 0 3.373.563 4.591 1.687 1.25 1.093 1.89 2.515 1.921 4.264v14.713h-5.248V24.17c-.062-1-.359-1.796-.89-2.39-.5-.624-1.328-.952-2.483-.983-1.625 0-2.968.702-4.03 2.108-1.03 1.406-1.546 3.17-1.546 5.295v8.809H23.42ZM48.458 26.888c0-2 .468-3.796 1.405-5.389.969-1.593 2.28-2.858 3.936-3.795 1.687-.937 3.624-1.406 5.81-1.406 2.218 0 4.14.469 5.764 1.406 1.655.937 2.936 2.202 3.842 3.795.906 1.594 1.359 3.39 1.359 5.389s-.453 3.81-1.359 5.435c-.906 1.593-2.187 2.858-3.842 3.795-1.656.938-3.593 1.406-5.81 1.406-2.156 0-4.077-.422-5.764-1.265a9.975 9.975 0 0 1-3.936-3.702c-.937-1.593-1.405-3.483-1.405-5.67Zm4.042 0c0 1.187.8 3.144 1.3 4.112.5.937 1.857 1.938 2.7 2.5.875.531 1.907 1 3 1 1.718 0 3.692-.99 4.754-2.177 1.062-1.218 2.246-3.655 2.246-5.435 0-1.78-1.438-4.67-2.5-5.888s-3.282-1.5-5-1.5c-1.093 0-2.125.407-3 1-.843.562-2 1.032-2.5 2-.5.937-1 3.232-1 4.388ZM76.088 17.189h5.248v19.82h-5.248v-19.82Zm-.234-7.076c0-.812.312-1.483.937-2.015.656-.53 1.359-.796 2.109-.796.718 0 1.39.265 2.014.796.625.532.938 1.203.938 2.015 0 .813-.313 1.484-.938 2.015-.624.5-1.296.75-2.014.75-.75 0-1.453-.25-2.109-.75-.625-.53-.937-1.203-.937-2.015ZM93.267 17.189l.375 4.591a9.018 9.018 0 0 1 2.296-2.905c.968-.843 1.952-1.483 2.952-1.92 1.03-.438 1.874-.657 2.53-.657l-.234 5.248c-1.5-.125-2.812.14-3.936.797a7.055 7.055 0 0 0-2.578 2.67 7.163 7.163 0 0 0-.89 3.468v8.528h-5.248v-19.82h4.733ZM114.583 37.524c-1.874 0-3.561-.39-5.06-1.171-1.5-.781-2.702-1.937-3.608-3.468-.875-1.53-1.312-3.451-1.312-5.763 0-2.249.453-4.17 1.359-5.763.937-1.625 2.155-2.874 3.654-3.749a9.846 9.846 0 0 1 4.967-1.312c1.843 0 3.327.36 4.451 1.078 1.156.687 2.078 1.515 2.765 2.483l.375-2.67H127v19.82h-5.248v-2.905c-.343.406-.843.874-1.499 1.405-.656.531-1.468 1-2.437 1.406-.937.406-2.015.61-3.233.61Zm1.453-4.31c1.405 0 2.608-.375 3.608-1.125.999-.75 1.702-1.78 2.108-3.093v-4.31c-.375-1.219-1.093-2.203-2.155-2.952-1.062-.75-2.312-1.125-3.749-1.125a5.823 5.823 0 0 0-2.999.797c-.874.5-1.593 1.234-2.155 2.202-.531.937-.797 2.015-.797 3.233 0 1.187.282 2.265.844 3.233a6.47 6.47 0 0 0 2.202 2.296 5.898 5.898 0 0 0 3.093.843Z"/><path fill="#fff" fill-rule="evenodd" d="M71.13 37.887c.791.764.746 1.961-.102 2.674-4.56 3.837-9.413 4.714-13.623 4.129-4.1-.57-7.47-2.502-9.374-4.145-.838-.723-.867-1.92-.066-2.676.802-.755 2.13-.781 2.968-.059 1.406 1.214 4.018 2.71 7.111 3.139 2.982.415 6.532-.136 10.12-3.155.848-.713 2.176-.672 2.967.093Z" clip-rule="evenodd"/><path fill="#FFC701" d="M48 26.976c0-2.072.487-3.934 1.462-5.585 1.007-1.651 2.371-2.963 4.093-3.934C55.31 16.486 57.323 16 59.597 16c2.307 0 4.305.486 5.994 1.457 1.722.971 3.054 2.282 3.996 3.934.942 1.65 1.413 3.513 1.413 5.585s-.471 3.95-1.413 5.633c-.942 1.651-2.274 2.963-3.996 3.934C63.87 37.514 61.855 38 59.55 38c-2.242 0-4.24-.437-5.994-1.311a10.358 10.358 0 0 1-4.093-3.837C48.487 31.201 48 29.242 48 26.976Zm5.506.048c0 1.23.26 2.348.78 3.351a6.33 6.33 0 0 0 2.095 2.331c.91.55 1.933.826 3.07.826 1.787 0 3.233-.615 4.337-1.845 1.105-1.263 1.657-2.817 1.657-4.663 0-1.845-.552-3.4-1.657-4.662-1.104-1.263-2.55-1.894-4.337-1.894-1.137 0-2.16.308-3.07.923-.877.583-1.575 1.376-2.095 2.38-.52.97-.78 2.055-.78 3.253Z"/></svg>