<svg xmlns="http://www.w3.org/2000/svg" width="19" height="19" fill="none"><path fill="#fff" d="M6.961 7.055c.504-.61 1.267-1 2.121-1a2.745 2.745 0 0 1 2.728 2.408 2.75 2.75 0 1 1-4.85-1.408h.001ZM12.832 8.805c0-.632-.156-1.228-.432-1.75h4.182a1.5 1.5 0 0 1 1.5 1.5v.5c0 1.587-1.206 3.212-3.315 3.784a2.5 2.5 0 0 0-2.185-1.284h-.95a3.739 3.739 0 0 0 1.2-2.75ZM12.582 12.555a1.496 1.496 0 0 1 1.5 1.5v.5c0 1.971-1.86 4-5 4-3.14 0-5-2.029-5-4v-.5a1.497 1.497 0 0 1 1.5-1.5h7Z"/><path fill="#fff" d="M.082 9.055c0 1.587 1.206 3.212 3.315 3.784a2.5 2.5 0 0 1 2.185-1.284h.95a3.74 3.74 0 0 1-1.2-2.75c0-.632.156-1.228.433-1.75H1.582a1.5 1.5 0 0 0-1.5 1.5v.5ZM7.832 3.305a2.75 2.75 0 1 0-5.5 0 2.75 2.75 0 0 0 5.5 0ZM15.832 3.305a2.75 2.75 0 1 0-5.5 0 2.75 2.75 0 0 0 5.5 0Z"/></svg>