<svg xmlns="http://www.w3.org/2000/svg" width="14" height="14" fill="none"><path fill="#fff" fill-rule="evenodd" d="M13.4 6.991a6.405 6.405 0 0 1-.504 2.488 6.437 6.437 0 0 1-2.318 2.811 6.47 6.47 0 0 1-1.087.59 6.423 6.423 0 0 1-6.07-.59 6.446 6.446 0 0 1-2.318-2.811A6.369 6.369 0 0 1 .73 5.704a6.355 6.355 0 0 1 .963-2.287 6.452 6.452 0 0 1 1.728-1.725A6.338 6.338 0 0 1 5.71.73a6.45 6.45 0 0 1 3.78.372 6.42 6.42 0 0 1 3.779 4.602c.086.42.13.854.13 1.287ZM4.668 2.055a5.466 5.466 0 0 0-3.017 3.81c.144.002 2.422.03 5.046-.665a32.864 32.864 0 0 0-2.03-3.145ZM7.15 6.04c-2.814.841-5.515.78-5.611.777-.002.059-.005.115-.005.174 0 1.402.53 2.68 1.4 3.647-.001-.003 1.494-2.653 4.444-3.605.071-.024.144-.045.216-.066-.138-.31-.287-.62-.444-.927Zm3.46-3.145A5.444 5.444 0 0 0 7 1.534c-.444 0-.875.053-1.288.153.082.11 1.108 1.47 2.043 3.183 2.062-.772 2.84-1.955 2.854-1.975ZM7.965 7.872l-.036.012c-3.225 1.122-4.278 3.384-4.29 3.41a5.459 5.459 0 0 0 5.494.722 22.694 22.694 0 0 0-1.168-4.144Zm2.088 3.645a5.46 5.46 0 0 0 2.342-3.66 7.94 7.94 0 0 0-3.406-.238 23.595 23.595 0 0 1 1.064 3.898ZM8.176 5.684a17.214 17.214 0 0 1 .481 1.074c1.878-.236 3.727.16 3.806.177a5.425 5.425 0 0 0-1.242-3.411c-.01.015-.887 1.28-3.045 2.16Z" clip-rule="evenodd"/></svg>