<svg xmlns="http://www.w3.org/2000/svg" width="500" height="500" fill="none"><g fill="#ffffff0d" clip-path="url(#a)"><path d="M10.274 500h169.52c80.384 0 145.548-65.164 145.548-145.548h-169.52c-80.384 0-145.548 65.164-145.548 145.548ZM10.274 154.11v214.041c80.384 0 145.548-65.164 145.548-145.548V8.562c-80.384 0-145.548 65.164-145.548 145.548ZM489.726 0h-169.52c-80.384 0-145.548 65.164-145.548 145.548h169.52c80.384 0 145.548-65.164 145.548-145.548ZM489.726 345.89V131.849c-80.384 0-145.548 65.164-145.548 145.548v214.041c80.384 0 145.548-65.164 145.548-145.548Z"/></g><defs><clipPath id="a"><path fill="#ffffff0d" d="M0 0h500v500H0z"/></clipPath></defs></svg>