<svg xmlns="http://www.w3.org/2000/svg" width="20" height="19" fill="none"><path stroke="#fff" stroke-linecap="round" stroke-linejoin="round" stroke-width="1.5" d="M2.261 10.969C1.372 10.504.857 9.95.857 9.359c0-1.657 4.03-3 9-3s9 1.343 9 3c0 .714-.75 1.37-2 1.886M9.857 8.369l.01-.011"/><path stroke="#fff" stroke-linecap="round" stroke-linejoin="round" stroke-width="1.5" d="M14.74 3.359c-.005-1.023-.263-1.747-.797-2.02-1.477-.751-4.503 2.23-6.76 6.658-2.256 4.429-2.889 8.629-1.412 9.38.527.27 1.252.062 2.07-.518"/><path stroke="#fff" stroke-linecap="round" stroke-linejoin="round" stroke-width="1.5" d="M7.458 1.611c-.66-.386-1.243-.497-1.686-.271-1.477.752-.844 4.952 1.413 9.38 2.256 4.43 5.282 7.41 6.758 6.658 1.313-.669.959-4.061-.72-7.917"/></svg>