<svg xmlns="http://www.w3.org/2000/svg" width="143" height="120" fill="none"><path fill="#C79C03" fill-rule="evenodd" d="M142.873 18.742c-21.324 10.412-31.986 22.646-31.986 36.703 9.089 1.04 16.605 4.728 22.547 11.063 5.943 6.334 8.915 13.666 8.915 21.995 0 8.85-2.884 16.313-8.652 22.386-5.769 6.074-13.022 9.111-21.762 9.111-9.788 0-18.265-3.948-25.431-11.844-7.167-7.896-10.75-17.484-10.75-28.763 0-33.84 19.052-60.304 57.156-79.393l9.963 18.742Zm-75.254 0C46.119 29.154 35.37 41.388 35.37 55.445c9.264 1.04 16.867 4.728 22.81 11.063 5.943 6.334 8.914 13.666 8.914 21.995 0 8.85-2.927 16.313-8.783 22.386C52.456 116.963 45.158 120 36.42 120c-9.788 0-18.222-3.948-25.3-11.844C4.038 100.26.5 90.672.5 79.393.5 45.553 19.464 19.089 57.394 0l10.225 18.742Z" clip-rule="evenodd"/></svg>