<svg xmlns="http://www.w3.org/2000/svg" width="16" height="16" fill="none"><g fill="#FFC701"><path d="M2.153 13c-.165 0-.508-.137-.766-.41-.258-.274-.387-.812-.387-.987v-8.38c0-.175.13-.539.387-.812.258-.274.601-.411.766-.411h3.953l1.317 1.397h5.271c.362 0 .754.223.931.41.155.165.387.428.387.812H6.88L5.562 3.222H2.153v8.381l1.581-5.587H15l-1.697 5.989c-.087.302-.25.544-.485.725-.236.18-.497.27-.783.27H2.153Zm.988-1.048h9.224l.673-2.444.674-2.445H4.459l-1.318 4.89Z"/><path d="M9.995 10.228v-1.72a.04.04 0 0 0-.01-.026.049.049 0 0 0-.025-.015c-.54-.132-1.384-.333-1.924-.465a.048.048 0 0 0-.041.007.037.037 0 0 0-.02.034l.005 1.664c-.285-.183-.813-.137-.943.178a.483.483 0 0 0 .15.565c.186.15.48.147.704.081.21-.062.38-.226.412-.422.016-.098.004-.204.004-.303v-.87c.352.087 1.006.243 1.359.33l.002.864c-.182-.122-.436-.127-.65-.062-.28.084-.365.328-.31.57.132.568 1.198.418 1.284-.105.016-.098.003-.206.003-.305"/></g></svg>