<svg xmlns="http://www.w3.org/2000/svg" width="24" height="24" fill="none"><path fill="#FFC701" d="M12.148 10.758a.188.188 0 0 0-.296 0l-2.625 3.32a.187.187 0 0 0 .148.303h1.732v5.681c0 .104.084.188.188.188H12.7a.188.188 0 0 0 .187-.188v-5.679h1.737c.157 0 .244-.18.148-.302l-2.625-3.323Z"/><path fill="#000" d="M19.017 8.595a7.503 7.503 0 0 0-7.012-4.845 7.5 7.5 0 0 0-7.013 4.842A4.69 4.69 0 0 0 1.5 13.125a4.686 4.686 0 0 0 4.685 4.688h.94a.188.188 0 0 0 .188-.188v-1.406a.188.188 0 0 0-.188-.188h-.94a2.905 2.905 0 0 1-2.29-4.697c.392-.499.94-.862 1.55-1.024l.888-.232.326-.858a5.756 5.756 0 0 1 2.065-2.655 5.675 5.675 0 0 1 3.28-1.036c1.184 0 2.319.359 3.282 1.036A5.762 5.762 0 0 1 17.35 9.22l.323.856.886.234a2.92 2.92 0 0 1 2.159 2.815 2.89 2.89 0 0 1-.851 2.056 2.884 2.884 0 0 1-2.053.85h-.94a.188.188 0 0 0-.188.188v1.406c0 .103.085.188.188.188h.94a4.688 4.688 0 0 0 1.202-9.218Z"/></svg>